<?xml version="1.0" encoding="UTF-8"?>
<!-- This file is generated by npm run build:icons -->
<svg xmlns="http://www.w3.org/2000/svg" xmlns:xlink="http://www.w3.org/1999/xlink" width="0" height="0">
<defs>
<symbol viewBox="0 0 15 15" fill="none" id="calendar"><path d="M4.5 1C4.77614 1 5 1.22386 5 1.5V2H10V1.5C10 1.22386 10.2239 1 10.5 1C10.7761 1 11 1.22386 11 1.5V2H12.5C13.3284 2 14 2.67157 14 3.5V12.5C14 13.3284 13.3284 14 12.5 14H2.5C1.67157 14 1 13.3284 1 12.5V3.5C1 2.67157 1.67157 2 2.5 2H4V1.5C4 1.22386 4.22386 1 4.5 1ZM10 3V3.5C10 3.77614 10.2239 4 10.5 4C10.7761 4 11 3.77614 11 3.5V3H12.5C12.7761 3 13 3.22386 13 3.5V5H2V3.5C2 3.22386 2.22386 3 2.5 3H4V3.5C4 3.77614 4.22386 4 4.5 4C4.77614 4 5 3.77614 5 3.5V3H10ZM2 6V12.5C2 12.7761 2.22386 13 2.5 13H12.5C12.7761 13 13 12.7761 13 12.5V6H2ZM7 7.5C7 7.22386 7.22386 7 7.5 7C7.77614 7 8 7.22386 8 7.5C8 7.77614 7.77614 8 7.5 8C7.22386 8 7 7.77614 7 7.5ZM9.5 7C9.22386 7 9 7.22386 9 7.5C9 7.77614 9.22386 8 9.5 8C9.77614 8 10 7.77614 10 7.5C10 7.22386 9.77614 7 9.5 7ZM11 7.5C11 7.22386 11.2239 7 11.5 7C11.7761 7 12 7.22386 12 7.5C12 7.77614 11.7761 8 11.5 8C11.2239 8 11 7.77614 11 7.5ZM11.5 9C11.2239 9 11 9.22386 11 9.5C11 9.77614 11.2239 10 11.5 10C11.7761 10 12 9.77614 12 9.5C12 9.22386 11.7761 9 11.5 9ZM9 9.5C9 9.22386 9.22386 9 9.5 9C9.77614 9 10 9.22386 10 9.5C10 9.77614 9.77614 10 9.5 10C9.22386 10 9 9.77614 9 9.5ZM7.5 9C7.22386 9 7 9.22386 7 9.5C7 9.77614 7.22386 10 7.5 10C7.77614 10 8 9.77614 8 9.5C8 9.22386 7.77614 9 7.5 9ZM5 9.5C5 9.22386 5.22386 9 5.5 9C5.77614 9 6 9.22386 6 9.5C6 9.77614 5.77614 10 5.5 10C5.22386 10 5 9.77614 5 9.5ZM3.5 9C3.22386 9 3 9.22386 3 9.5C3 9.77614 3.22386 10 3.5 10C3.77614 10 4 9.77614 4 9.5C4 9.22386 3.77614 9 3.5 9ZM3 11.5C3 11.2239 3.22386 11 3.5 11C3.77614 11 4 11.2239 4 11.5C4 11.7761 3.77614 12 3.5 12C3.22386 12 3 11.7761 3 11.5ZM5.5 11C5.22386 11 5 11.2239 5 11.5C5 11.7761 5.22386 12 5.5 12C5.77614 12 6 11.7761 6 11.5C6 11.2239 5.77614 11 5.5 11ZM7 11.5C7 11.2239 7.22386 11 7.5 11C7.77614 11 8 11.2239 8 11.5C8 11.7761 7.77614 12 7.5 12C7.22386 12 7 11.7761 7 11.5ZM9.5 11C9.22386 11 9 11.2239 9 11.5C9 11.7761 9.22386 12 9.5 12C9.77614 12 10 11.7761 10 11.5C10 11.2239 9.77614 11 9.5 11Z" fill="currentColor" fill-rule="evenodd" clip-rule="evenodd"></path></symbol>
<symbol viewBox="0 0 24 24" fill="none" stroke="currentColor" strokeLinecap="round" strokeLinejoin="round" strokeWidth="2" className="h-4 w-4 text-muted-foreground" id="card">
            <rect width="20" height="14" x="2" y="5" rx="2" ></rect>
            <path d="M2 10h20" ></path>
          </symbol>
<symbol viewBox="0 0 15 15" fill="none" id="caret-sort"><path d="M4.93179 5.43179C4.75605 5.60753 4.75605 5.89245 4.93179 6.06819C5.10753 6.24392 5.39245 6.24392 5.56819 6.06819L7.49999 4.13638L9.43179 6.06819C9.60753 6.24392 9.89245 6.24392 10.0682 6.06819C10.2439 5.89245 10.2439 5.60753 10.0682 5.43179L7.81819 3.18179C7.73379 3.0974 7.61933 3.04999 7.49999 3.04999C7.38064 3.04999 7.26618 3.0974 7.18179 3.18179L4.93179 5.43179ZM10.0682 9.56819C10.2439 9.39245 10.2439 9.10753 10.0682 8.93179C9.89245 8.75606 9.60753 8.75606 9.43179 8.93179L7.49999 10.8636L5.56819 8.93179C5.39245 8.75606 5.10753 8.75606 4.93179 8.93179C4.75605 9.10753 4.75605 9.39245 4.93179 9.56819L7.18179 11.8182C7.35753 11.9939 7.64245 11.9939 7.81819 11.8182L10.0682 9.56819Z" fill="currentColor" fill-rule="evenodd" clip-rule="evenodd"></path></symbol>
<symbol viewBox="0 0 15 15" fill="none" id="chart"><path d="M11.5 1C11.7761 1 12 1.22386 12 1.5V13.5C12 13.7761 11.7761 14 11.5 14C11.2239 14 11 13.7761 11 13.5V1.5C11 1.22386 11.2239 1 11.5 1ZM9.5 3C9.77614 3 10 3.22386 10 3.5V13.5C10 13.7761 9.77614 14 9.5 14C9.22386 14 9 13.7761 9 13.5V3.5C9 3.22386 9.22386 3 9.5 3ZM13.5 3C13.7761 3 14 3.22386 14 3.5V13.5C14 13.7761 13.7761 14 13.5 14C13.2239 14 13 13.7761 13 13.5V3.5C13 3.22386 13.2239 3 13.5 3ZM5.5 4C5.77614 4 6 4.22386 6 4.5V13.5C6 13.7761 5.77614 14 5.5 14C5.22386 14 5 13.7761 5 13.5V4.5C5 4.22386 5.22386 4 5.5 4ZM1.5 5C1.77614 5 2 5.22386 2 5.5V13.5C2 13.7761 1.77614 14 1.5 14C1.22386 14 1 13.7761 1 13.5V5.5C1 5.22386 1.22386 5 1.5 5ZM7.5 5C7.77614 5 8 5.22386 8 5.5V13.5C8 13.7761 7.77614 14 7.5 14C7.22386 14 7 13.7761 7 13.5V5.5C7 5.22386 7.22386 5 7.5 5ZM3.5 7C3.77614 7 4 7.22386 4 7.5V13.5C4 13.7761 3.77614 14 3.5 14C3.22386 14 3 13.7761 3 13.5V7.5C3 7.22386 3.22386 7 3.5 7Z" fill="currentColor" fill-rule="evenodd" clip-rule="evenodd"></path></symbol>
<symbol viewBox="0 0 15 15" fill="none" id="check-circle"><path d="M7.49991 0.877045C3.84222 0.877045 0.877075 3.84219 0.877075 7.49988C0.877075 11.1575 3.84222 14.1227 7.49991 14.1227C11.1576 14.1227 14.1227 11.1575 14.1227 7.49988C14.1227 3.84219 11.1576 0.877045 7.49991 0.877045ZM1.82708 7.49988C1.82708 4.36686 4.36689 1.82704 7.49991 1.82704C10.6329 1.82704 13.1727 4.36686 13.1727 7.49988C13.1727 10.6329 10.6329 13.1727 7.49991 13.1727C4.36689 13.1727 1.82708 10.6329 1.82708 7.49988ZM10.1589 5.53774C10.3178 5.31191 10.2636 5.00001 10.0378 4.84109C9.81194 4.68217 9.50004 4.73642 9.34112 4.96225L6.51977 8.97154L5.35681 7.78706C5.16334 7.59002 4.84677 7.58711 4.64973 7.78058C4.45268 7.97404 4.44978 8.29061 4.64325 8.48765L6.22658 10.1003C6.33054 10.2062 6.47617 10.2604 6.62407 10.2483C6.77197 10.2363 6.90686 10.1591 6.99226 10.0377L10.1589 5.53774Z" fill="currentColor" fill-rule="evenodd" clip-rule="evenodd"></path></symbol>
<symbol viewBox="0 0 15 15" fill="none" id="check"><path d="M11.4669 3.72684C11.7558 3.91574 11.8369 4.30308 11.648 4.59198L7.39799 11.092C7.29783 11.2452 7.13556 11.3467 6.95402 11.3699C6.77247 11.3931 6.58989 11.3355 6.45446 11.2124L3.70446 8.71241C3.44905 8.48022 3.43023 8.08494 3.66242 7.82953C3.89461 7.57412 4.28989 7.55529 4.5453 7.78749L6.75292 9.79441L10.6018 3.90792C10.7907 3.61902 11.178 3.53795 11.4669 3.72684Z" fill="currentColor" fill-rule="evenodd" clip-rule="evenodd"></path></symbol>
<symbol viewBox="0 0 15 15" fill="none" id="chevron-down"><path d="M3.13523 6.15803C3.3241 5.95657 3.64052 5.94637 3.84197 6.13523L7.5 9.56464L11.158 6.13523C11.3595 5.94637 11.6759 5.95657 11.8648 6.15803C12.0536 6.35949 12.0434 6.67591 11.842 6.86477L7.84197 10.6148C7.64964 10.7951 7.35036 10.7951 7.15803 10.6148L3.15803 6.86477C2.95657 6.67591 2.94637 6.35949 3.13523 6.15803Z" fill="currentColor" fill-rule="evenodd" clip-rule="evenodd"></path></symbol>
<symbol viewBox="0 0 15 15" fill="none" id="chevron-left"><path d="M8.84182 3.13514C9.04327 3.32401 9.05348 3.64042 8.86462 3.84188L5.43521 7.49991L8.86462 11.1579C9.05348 11.3594 9.04327 11.6758 8.84182 11.8647C8.64036 12.0535 8.32394 12.0433 8.13508 11.8419L4.38508 7.84188C4.20477 7.64955 4.20477 7.35027 4.38508 7.15794L8.13508 3.15794C8.32394 2.95648 8.64036 2.94628 8.84182 3.13514Z" fill="currentColor" fill-rule="evenodd" clip-rule="evenodd"></path></symbol>
<symbol viewBox="0 0 15 15" fill="none" id="chevron-right"><path d="M6.1584 3.13508C6.35985 2.94621 6.67627 2.95642 6.86514 3.15788L10.6151 7.15788C10.7954 7.3502 10.7954 7.64949 10.6151 7.84182L6.86514 11.8418C6.67627 12.0433 6.35985 12.0535 6.1584 11.8646C5.95694 11.6757 5.94673 11.3593 6.1356 11.1579L9.565 7.49985L6.1356 3.84182C5.94673 3.64036 5.95694 3.32394 6.1584 3.13508Z" fill="currentColor" fill-rule="evenodd" clip-rule="evenodd"></path></symbol>
<symbol viewBox="0 0 15 15" fill="none" id="chevron-up"><path d="M3.13523 8.84197C3.3241 9.04343 3.64052 9.05363 3.84197 8.86477L7.5 5.43536L11.158 8.86477C11.3595 9.05363 11.6759 9.04343 11.8648 8.84197C12.0536 8.64051 12.0434 8.32409 11.842 8.13523L7.84197 4.38523C7.64964 4.20492 7.35036 4.20492 7.15803 4.38523L3.15803 8.13523C2.95657 8.32409 2.94637 8.64051 3.13523 8.84197Z" fill="currentColor" fill-rule="evenodd" clip-rule="evenodd"></path></symbol>
<symbol viewBox="0 0 15 15" fill="none" id="clock"><path d="M13.15 7.49998C13.15 4.66458 10.9402 1.84998 7.50002 1.84998C4.72167 1.84998 3.34849 3.9064 2.76335 5H4.5C4.77614 5 5 5.22386 5 5.5C5 5.77614 4.77614 6 4.5 6H1.5C1.22386 6 1 5.77614 1 5.5V2.5C1 2.22386 1.22386 2 1.5 2C1.77614 2 2 2.22386 2 2.5V4.31318C2.70453 3.07126 4.33406 0.849976 7.50002 0.849976C11.5628 0.849976 14.15 4.18537 14.15 7.49998C14.15 10.8146 11.5628 14.15 7.50002 14.15C5.55618 14.15 3.93778 13.3808 2.78548 12.2084C2.16852 11.5806 1.68668 10.839 1.35816 10.0407C1.25306 9.78536 1.37488 9.49315 1.63024 9.38806C1.8856 9.28296 2.17781 9.40478 2.2829 9.66014C2.56374 10.3425 2.97495 10.9745 3.4987 11.5074C4.47052 12.4963 5.83496 13.15 7.50002 13.15C10.9402 13.15 13.15 10.3354 13.15 7.49998ZM7.5 4.00001C7.77614 4.00001 8 4.22387 8 4.50001V7.29291L9.85355 9.14646C10.0488 9.34172 10.0488 9.65831 9.85355 9.85357C9.65829 10.0488 9.34171 10.0488 9.14645 9.85357L7.14645 7.85357C7.05268 7.7598 7 7.63262 7 7.50001V4.50001C7 4.22387 7.22386 4.00001 7.5 4.00001Z" fill="currentColor" fill-rule="evenodd" clip-rule="evenodd"></path></symbol>
<symbol viewBox="0 0 15 15" fill="none" id="column"><path d="M9 2H6V13H9V2ZM10 2V13H12.5C12.7761 13 13 12.7761 13 12.5V2.5C13 2.22386 12.7761 2 12.5 2H10ZM2.5 2H5V13H2.5C2.22386 13 2 12.7761 2 12.5V2.5C2 2.22386 2.22386 2 2.5 2ZM2.5 1C1.67157 1 1 1.67157 1 2.5V12.5C1 13.3284 1.67157 14 2.5 14H12.5C13.3284 14 14 13.3284 14 12.5V2.5C14 1.67157 13.3284 1 12.5 1H2.5Z" fill="currentColor" fill-rule="evenodd" clip-rule="evenodd"></path></symbol>
<symbol viewBox="0 0 15 15" fill="none" id="cross"><path d="M11.7816 4.03157C12.0062 3.80702 12.0062 3.44295 11.7816 3.2184C11.5571 2.99385 11.193 2.99385 10.9685 3.2184L7.50005 6.68682L4.03164 3.2184C3.80708 2.99385 3.44301 2.99385 3.21846 3.2184C2.99391 3.44295 2.99391 3.80702 3.21846 4.03157L6.68688 7.49999L3.21846 10.9684C2.99391 11.193 2.99391 11.557 3.21846 11.7816C3.44301 12.0061 3.80708 12.0061 4.03164 11.7816L7.50005 8.31316L10.9685 11.7816C11.193 12.0061 11.5571 12.0061 11.7816 11.7816C12.0062 11.557 12.0062 11.193 11.7816 10.9684L8.31322 7.49999L11.7816 4.03157Z" fill="currentColor" fill-rule="evenodd" clip-rule="evenodd"></path></symbol>
<symbol viewBox="0 0 15 15" fill="none" id="dashboard"><path d="M2.8 1L2.74967 0.99997C2.52122 0.999752 2.32429 0.999564 2.14983 1.04145C1.60136 1.17312 1.17312 1.60136 1.04145 2.14983C0.999564 2.32429 0.999752 2.52122 0.99997 2.74967L1 2.8V5.2L0.99997 5.25033C0.999752 5.47878 0.999564 5.67572 1.04145 5.85017C1.17312 6.39864 1.60136 6.82688 2.14983 6.95856C2.32429 7.00044 2.52122 7.00025 2.74967 7.00003L2.8 7H5.2L5.25033 7.00003C5.47878 7.00025 5.67572 7.00044 5.85017 6.95856C6.39864 6.82688 6.82688 6.39864 6.95856 5.85017C7.00044 5.67572 7.00025 5.47878 7.00003 5.25033L7 5.2V2.8L7.00003 2.74967C7.00025 2.52122 7.00044 2.32429 6.95856 2.14983C6.82688 1.60136 6.39864 1.17312 5.85017 1.04145C5.67572 0.999564 5.47878 0.999752 5.25033 0.99997L5.2 1H2.8ZM2.38328 2.01382C2.42632 2.00348 2.49222 2 2.8 2H5.2C5.50779 2 5.57369 2.00348 5.61672 2.01382C5.79955 2.05771 5.94229 2.20045 5.98619 2.38328C5.99652 2.42632 6 2.49222 6 2.8V5.2C6 5.50779 5.99652 5.57369 5.98619 5.61672C5.94229 5.79955 5.79955 5.94229 5.61672 5.98619C5.57369 5.99652 5.50779 6 5.2 6H2.8C2.49222 6 2.42632 5.99652 2.38328 5.98619C2.20045 5.94229 2.05771 5.79955 2.01382 5.61672C2.00348 5.57369 2 5.50779 2 5.2V2.8C2 2.49222 2.00348 2.42632 2.01382 2.38328C2.05771 2.20045 2.20045 2.05771 2.38328 2.01382ZM9.8 1L9.74967 0.99997C9.52122 0.999752 9.32429 0.999564 9.14983 1.04145C8.60136 1.17312 8.17312 1.60136 8.04145 2.14983C7.99956 2.32429 7.99975 2.52122 7.99997 2.74967L8 2.8V5.2L7.99997 5.25033C7.99975 5.47878 7.99956 5.67572 8.04145 5.85017C8.17312 6.39864 8.60136 6.82688 9.14983 6.95856C9.32429 7.00044 9.52122 7.00025 9.74967 7.00003L9.8 7H12.2L12.2503 7.00003C12.4788 7.00025 12.6757 7.00044 12.8502 6.95856C13.3986 6.82688 13.8269 6.39864 13.9586 5.85017C14.0004 5.67572 14.0003 5.47878 14 5.25033L14 5.2V2.8L14 2.74967C14.0003 2.52122 14.0004 2.32429 13.9586 2.14983C13.8269 1.60136 13.3986 1.17312 12.8502 1.04145C12.6757 0.999564 12.4788 0.999752 12.2503 0.99997L12.2 1H9.8ZM9.38328 2.01382C9.42632 2.00348 9.49222 2 9.8 2H12.2C12.5078 2 12.5737 2.00348 12.6167 2.01382C12.7995 2.05771 12.9423 2.20045 12.9862 2.38328C12.9965 2.42632 13 2.49222 13 2.8V5.2C13 5.50779 12.9965 5.57369 12.9862 5.61672C12.9423 5.79955 12.7995 5.94229 12.6167 5.98619C12.5737 5.99652 12.5078 6 12.2 6H9.8C9.49222 6 9.42632 5.99652 9.38328 5.98619C9.20045 5.94229 9.05771 5.79955 9.01382 5.61672C9.00348 5.57369 9 5.50779 9 5.2V2.8C9 2.49222 9.00348 2.42632 9.01382 2.38328C9.05771 2.20045 9.20045 2.05771 9.38328 2.01382ZM2.74967 7.99997L2.8 8H5.2L5.25033 7.99997C5.47878 7.99975 5.67572 7.99956 5.85017 8.04145C6.39864 8.17312 6.82688 8.60136 6.95856 9.14983C7.00044 9.32429 7.00025 9.52122 7.00003 9.74967L7 9.8V12.2L7.00003 12.2503C7.00025 12.4788 7.00044 12.6757 6.95856 12.8502C6.82688 13.3986 6.39864 13.8269 5.85017 13.9586C5.67572 14.0004 5.47878 14.0003 5.25033 14L5.2 14H2.8L2.74967 14C2.52122 14.0003 2.32429 14.0004 2.14983 13.9586C1.60136 13.8269 1.17312 13.3986 1.04145 12.8502C0.999564 12.6757 0.999752 12.4788 0.99997 12.2503L1 12.2V9.8L0.99997 9.74967C0.999752 9.52122 0.999564 9.32429 1.04145 9.14983C1.17312 8.60136 1.60136 8.17312 2.14983 8.04145C2.32429 7.99956 2.52122 7.99975 2.74967 7.99997ZM2.8 9C2.49222 9 2.42632 9.00348 2.38328 9.01382C2.20045 9.05771 2.05771 9.20045 2.01382 9.38328C2.00348 9.42632 2 9.49222 2 9.8V12.2C2 12.5078 2.00348 12.5737 2.01382 12.6167C2.05771 12.7995 2.20045 12.9423 2.38328 12.9862C2.42632 12.9965 2.49222 13 2.8 13H5.2C5.50779 13 5.57369 12.9965 5.61672 12.9862C5.79955 12.9423 5.94229 12.7995 5.98619 12.6167C5.99652 12.5737 6 12.5078 6 12.2V9.8C6 9.49222 5.99652 9.42632 5.98619 9.38328C5.94229 9.20045 5.79955 9.05771 5.61672 9.01382C5.57369 9.00348 5.50779 9 5.2 9H2.8ZM9.8 8L9.74967 7.99997C9.52122 7.99975 9.32429 7.99956 9.14983 8.04145C8.60136 8.17312 8.17312 8.60136 8.04145 9.14983C7.99956 9.32429 7.99975 9.52122 7.99997 9.74967L8 9.8V12.2L7.99997 12.2503C7.99975 12.4788 7.99956 12.6757 8.04145 12.8502C8.17312 13.3986 8.60136 13.8269 9.14983 13.9586C9.32429 14.0004 9.52122 14.0003 9.74967 14L9.8 14H12.2L12.2503 14C12.4788 14.0003 12.6757 14.0004 12.8502 13.9586C13.3986 13.8269 13.8269 13.3986 13.9586 12.8502C14.0004 12.6757 14.0003 12.4788 14 12.2503L14 12.2V9.8L14 9.74967C14.0003 9.52122 14.0004 9.32429 13.9586 9.14983C13.8269 8.60136 13.3986 8.17312 12.8502 8.04145C12.6757 7.99956 12.4788 7.99975 12.2503 7.99997L12.2 8H9.8ZM9.38328 9.01382C9.42632 9.00348 9.49222 9 9.8 9H12.2C12.5078 9 12.5737 9.00348 12.6167 9.01382C12.7995 9.05771 12.9423 9.20045 12.9862 9.38328C12.9965 9.42632 13 9.49222 13 9.8V12.2C13 12.5078 12.9965 12.5737 12.9862 12.6167C12.9423 12.7995 12.7995 12.9423 12.6167 12.9862C12.5737 12.9965 12.5078 13 12.2 13H9.8C9.49222 13 9.42632 12.9965 9.38328 12.9862C9.20045 12.9423 9.05771 12.7995 9.01382 12.6167C9.00348 12.5737 9 12.5078 9 12.2V9.8C9 9.49222 9.00348 9.42632 9.01382 9.38328C9.05771 9.20045 9.20045 9.05771 9.38328 9.01382Z" fill="currentColor" fill-rule="evenodd" clip-rule="evenodd"></path></symbol>
<symbol viewBox="0 0 24 24" fill="none" stroke="currentColor" strokeLinecap="round" strokeLinejoin="round" strokeWidth="2" className="h-4 w-4 text-muted-foreground" id="dollar">
            <path d="M12 2v20M17 5H9.5a3.5 3.5 0 0 0 0 7h5a3.5 3.5 0 0 1 0 7H6" ></path>
          </symbol>
<symbol viewBox="0 0 15 15" fill="none" id="dot-filled"><path d="M9.875 7.5C9.875 8.81168 8.81168 9.875 7.5 9.875C6.18832 9.875 5.125 8.81168 5.125 7.5C5.125 6.18832 6.18832 5.125 7.5 5.125C8.81168 5.125 9.875 6.18832 9.875 7.5Z" fill="currentColor"></path></symbol>
<symbol viewBox="0 0 15 15" fill="none" id="dots-horizontal"><path d="M3.625 7.5C3.625 8.12132 3.12132 8.625 2.5 8.625C1.87868 8.625 1.375 8.12132 1.375 7.5C1.375 6.87868 1.87868 6.375 2.5 6.375C3.12132 6.375 3.625 6.87868 3.625 7.5ZM8.625 7.5C8.625 8.12132 8.12132 8.625 7.5 8.625C6.87868 8.625 6.375 8.12132 6.375 7.5C6.375 6.87868 6.87868 6.375 7.5 6.375C8.12132 6.375 8.625 6.87868 8.625 7.5ZM12.5 8.625C13.1213 8.625 13.625 8.12132 13.625 7.5C13.625 6.87868 13.1213 6.375 12.5 6.375C11.8787 6.375 11.375 6.87868 11.375 7.5C11.375 8.12132 11.8787 8.625 12.5 8.625Z" fill="currentColor" fill-rule="evenodd" clip-rule="evenodd"></path></symbol>
<symbol viewBox="0 0 15 15" fill="none" id="dots-vertical"><path d="M8.625 2.5C8.625 3.12132 8.12132 3.625 7.5 3.625C6.87868 3.625 6.375 3.12132 6.375 2.5C6.375 1.87868 6.87868 1.375 7.5 1.375C8.12132 1.375 8.625 1.87868 8.625 2.5ZM8.625 7.5C8.625 8.12132 8.12132 8.625 7.5 8.625C6.87868 8.625 6.375 8.12132 6.375 7.5C6.375 6.87868 6.87868 6.375 7.5 6.375C8.12132 6.375 8.625 6.87868 8.625 7.5ZM7.5 13.625C8.12132 13.625 8.625 13.1213 8.625 12.5C8.625 11.8787 8.12132 11.375 7.5 11.375C6.87868 11.375 6.375 11.8787 6.375 12.5C6.375 13.1213 6.87868 13.625 7.5 13.625Z" fill="currentColor" fill-rule="evenodd" clip-rule="evenodd"></path></symbol>
<symbol viewBox="0 0 15 15" fill="none" id="edit"><path d="M11.8536 1.14645C11.6583 0.951184 11.3417 0.951184 11.1465 1.14645L3.71455 8.57836C3.62459 8.66832 3.55263 8.77461 3.50251 8.89155L2.04044 12.303C1.9599 12.491 2.00189 12.709 2.14646 12.8536C2.29103 12.9981 2.50905 13.0401 2.69697 12.9596L6.10847 11.4975C6.2254 11.4474 6.3317 11.3754 6.42166 11.2855L13.8536 3.85355C14.0488 3.65829 14.0488 3.34171 13.8536 3.14645L11.8536 1.14645ZM4.42166 9.28547L11.5 2.20711L12.7929 3.5L5.71455 10.5784L4.21924 11.2192L3.78081 10.7808L4.42166 9.28547Z" fill="currentColor" fill-rule="evenodd" clip-rule="evenodd"></path></symbol>
<symbol viewBox="0 0 15 15" fill="none" id="employee"><path d="M0.877197 7.49984C0.877197 3.84216 3.84234 0.877014 7.50003 0.877014C11.1577 0.877014 14.1229 3.84216 14.1229 7.49984C14.1229 11.1575 11.1577 14.1227 7.50003 14.1227C3.84234 14.1227 0.877197 11.1575 0.877197 7.49984ZM7.50003 1.82701C4.36702 1.82701 1.8272 4.36683 1.8272 7.49984C1.8272 10.6328 4.36702 13.1727 7.50003 13.1727C10.633 13.1727 13.1729 10.6328 13.1729 7.49984C13.1729 4.36683 10.633 1.82701 7.50003 1.82701ZM7.12457 9.00001C7.06994 9.12735 6.33165 11.9592 6.33165 11.9592C6.26018 12.226 5.98601 12.3843 5.71928 12.3128C5.45255 12.2413 5.29425 11.9672 5.36573 11.7004C5.36573 11.7004 6.24661 8.87268 6.24661 8.27007V6.80099L4.28763 6.27608C4.0209 6.20461 3.86261 5.93045 3.93408 5.66371C4.00555 5.39698 4.27972 5.23869 4.54645 5.31016C4.54645 5.31016 6.20042 5.87268 6.84579 5.87268H8.15505C8.80042 5.87268 10.4534 5.31042 10.4534 5.31042C10.7202 5.23895 10.9943 5.39724 11.0658 5.66397C11.1373 5.93071 10.979 6.20487 10.7122 6.27635L8.74661 6.80303V8.27007C8.74661 8.87268 9.62663 11.6971 9.62663 11.6971C9.6981 11.9639 9.5398 12.238 9.27307 12.3095C9.00634 12.381 8.73217 12.2227 8.6607 11.956C8.6607 11.956 7.91994 9.12735 7.86866 9.00001C7.81994 8.87268 7.65006 8.87268 7.65006 8.87268H7.34317C7.34317 8.87268 7.16994 8.87268 7.12457 9.00001ZM7.50043 5.12007C8.12175 5.12007 8.62543 4.61639 8.62543 3.99507C8.62543 3.37375 8.12175 2.87007 7.50043 2.87007C6.87911 2.87007 6.37543 3.37375 6.37543 3.99507C6.37543 4.61639 6.87911 5.12007 7.50043 5.12007Z" fill="currentColor" fill-rule="evenodd" clip-rule="evenodd"></path></symbol>
<symbol viewBox="0 0 15 15" fill="none" id="exclaimation-triangle"><path d="M8.4449 0.608765C8.0183 -0.107015 6.9817 -0.107015 6.55509 0.608766L0.161178 11.3368C-0.275824 12.07 0.252503 13 1.10608 13H13.8939C14.7475 13 15.2758 12.07 14.8388 11.3368L8.4449 0.608765ZM7.4141 1.12073C7.45288 1.05566 7.54712 1.05566 7.5859 1.12073L13.9798 11.8488C14.0196 11.9154 13.9715 12 13.8939 12H1.10608C1.02849 12 0.980454 11.9154 1.02018 11.8488L7.4141 1.12073ZM6.8269 4.48611C6.81221 4.10423 7.11783 3.78663 7.5 3.78663C7.88217 3.78663 8.18778 4.10423 8.1731 4.48612L8.01921 8.48701C8.00848 8.766 7.7792 8.98664 7.5 8.98664C7.2208 8.98664 6.99151 8.766 6.98078 8.48701L6.8269 4.48611ZM8.24989 10.476C8.24989 10.8902 7.9141 11.226 7.49989 11.226C7.08567 11.226 6.74989 10.8902 6.74989 10.476C6.74989 10.0618 7.08567 9.72599 7.49989 9.72599C7.9141 9.72599 8.24989 10.0618 8.24989 10.476Z" fill="currentColor" fill-rule="evenodd" clip-rule="evenodd"></path></symbol>
<symbol viewBox="0 0 15 15" fill="none" id="feedback"><path d="M12.1464 1.14645C12.3417 0.951184 12.6583 0.951184 12.8535 1.14645L14.8535 3.14645C15.0488 3.34171 15.0488 3.65829 14.8535 3.85355L10.9109 7.79618C10.8349 7.87218 10.7471 7.93543 10.651 7.9835L6.72359 9.94721C6.53109 10.0435 6.29861 10.0057 6.14643 9.85355C5.99425 9.70137 5.95652 9.46889 6.05277 9.27639L8.01648 5.34897C8.06455 5.25283 8.1278 5.16507 8.2038 5.08907L12.1464 1.14645ZM12.5 2.20711L8.91091 5.79618L7.87266 7.87267L8.12731 8.12732L10.2038 7.08907L13.7929 3.5L12.5 2.20711ZM9.99998 2L8.99998 3H4.9C4.47171 3 4.18056 3.00039 3.95552 3.01877C3.73631 3.03668 3.62421 3.06915 3.54601 3.10899C3.35785 3.20487 3.20487 3.35785 3.10899 3.54601C3.06915 3.62421 3.03669 3.73631 3.01878 3.95552C3.00039 4.18056 3 4.47171 3 4.9V11.1C3 11.5283 3.00039 11.8194 3.01878 12.0445C3.03669 12.2637 3.06915 12.3758 3.10899 12.454C3.20487 12.6422 3.35785 12.7951 3.54601 12.891C3.62421 12.9309 3.73631 12.9633 3.95552 12.9812C4.18056 12.9996 4.47171 13 4.9 13H11.1C11.5283 13 11.8194 12.9996 12.0445 12.9812C12.2637 12.9633 12.3758 12.9309 12.454 12.891C12.6422 12.7951 12.7951 12.6422 12.891 12.454C12.9309 12.3758 12.9633 12.2637 12.9812 12.0445C12.9996 11.8194 13 11.5283 13 11.1V6.99998L14 5.99998V11.1V11.1207C14 11.5231 14 11.8553 13.9779 12.1259C13.9549 12.407 13.9057 12.6653 13.782 12.908C13.5903 13.2843 13.2843 13.5903 12.908 13.782C12.6653 13.9057 12.407 13.9549 12.1259 13.9779C11.8553 14 11.5231 14 11.1207 14H11.1H4.9H4.87934C4.47686 14 4.14468 14 3.87409 13.9779C3.59304 13.9549 3.33469 13.9057 3.09202 13.782C2.7157 13.5903 2.40973 13.2843 2.21799 12.908C2.09434 12.6653 2.04506 12.407 2.0221 12.1259C1.99999 11.8553 1.99999 11.5231 2 11.1207V11.1206V11.1V4.9V4.87935V4.87932V4.87931C1.99999 4.47685 1.99999 4.14468 2.0221 3.87409C2.04506 3.59304 2.09434 3.33469 2.21799 3.09202C2.40973 2.71569 2.7157 2.40973 3.09202 2.21799C3.33469 2.09434 3.59304 2.04506 3.87409 2.0221C4.14468 1.99999 4.47685 1.99999 4.87932 2H4.87935H4.9H9.99998Z" fill="currentColor" fill-rule="evenodd" clip-rule="evenodd"></path></symbol>
<symbol viewBox="0 0 15 15" fill="none" id="import"><path d="M3.89949 5.50002C3.89949 5.27911 3.7204 5.10003 3.49949 5.10003C3.27857 5.10003 3.09949 5.27911 3.09949 5.50002L3.09949 12.5343L1.78233 11.2172C1.62612 11.061 1.37285 11.061 1.21664 11.2172C1.06043 11.3734 1.06043 11.6267 1.21664 11.7829L3.21664 13.7829C3.29166 13.8579 3.3934 13.9 3.49949 13.9C3.60557 13.9 3.70732 13.8579 3.78233 13.7829L5.78233 11.7829C5.93854 11.6267 5.93854 11.3734 5.78233 11.2172C5.62612 11.061 5.37285 11.061 5.21664 11.2172L3.89949 12.5343L3.89949 5.50002ZM8.49998 13C8.22383 13 7.99998 12.7762 7.99998 12.5C7.99998 12.2239 8.22383 12 8.49998 12H14.5C14.7761 12 15 12.2239 15 12.5C15 12.7762 14.7761 13 14.5 13H8.49998ZM8.49998 10C8.22383 10 7.99998 9.77617 7.99998 9.50002C7.99998 9.22388 8.22383 9.00002 8.49998 9.00002H14.5C14.7761 9.00002 15 9.22388 15 9.50002C15 9.77617 14.7761 10 14.5 10H8.49998ZM7.99998 6.50002C7.99998 6.77617 8.22383 7.00002 8.49998 7.00002H14.5C14.7761 7.00002 15 6.77617 15 6.50002C15 6.22388 14.7761 6.00002 14.5 6.00002H8.49998C8.22383 6.00002 7.99998 6.22388 7.99998 6.50002Z" fill="currentColor" fill-rule="evenodd" clip-rule="evenodd"></path></symbol>
<symbol viewBox="0 0 15 15" fill="none" id="info"><path d="M7.49991 0.876892C3.84222 0.876892 0.877075 3.84204 0.877075 7.49972C0.877075 11.1574 3.84222 14.1226 7.49991 14.1226C11.1576 14.1226 14.1227 11.1574 14.1227 7.49972C14.1227 3.84204 11.1576 0.876892 7.49991 0.876892ZM1.82707 7.49972C1.82707 4.36671 4.36689 1.82689 7.49991 1.82689C10.6329 1.82689 13.1727 4.36671 13.1727 7.49972C13.1727 10.6327 10.6329 13.1726 7.49991 13.1726C4.36689 13.1726 1.82707 10.6327 1.82707 7.49972ZM8.24992 4.49999C8.24992 4.9142 7.91413 5.24999 7.49992 5.24999C7.08571 5.24999 6.74992 4.9142 6.74992 4.49999C6.74992 4.08577 7.08571 3.74999 7.49992 3.74999C7.91413 3.74999 8.24992 4.08577 8.24992 4.49999ZM6.00003 5.99999H6.50003H7.50003C7.77618 5.99999 8.00003 6.22384 8.00003 6.49999V9.99999H8.50003H9.00003V11H8.50003H7.50003H6.50003H6.00003V9.99999H6.50003H7.00003V6.99999H6.50003H6.00003V5.99999Z" fill="currentColor" fill-rule="evenodd" clip-rule="evenodd"></path></symbol>
<symbol viewBox="0 0 15 15" fill="none" id="input"><path d="M6.5 1C6.22386 1 6 1.22386 6 1.5C6 1.77614 6.22386 2 6.5 2C7.12671 2 7.45718 2.20028 7.65563 2.47812C7.8781 2.78957 8 3.28837 8 4V11C8 11.7116 7.8781 12.2104 7.65563 12.5219C7.45718 12.7997 7.12671 13 6.5 13C6.22386 13 6 13.2239 6 13.5C6 13.7761 6.22386 14 6.5 14C7.37329 14 8.04282 13.7003 8.46937 13.1031C8.47976 13.0886 8.48997 13.0739 8.5 13.0591C8.51003 13.0739 8.52024 13.0886 8.53063 13.1031C8.95718 13.7003 9.62671 14 10.5 14C10.7761 14 11 13.7761 11 13.5C11 13.2239 10.7761 13 10.5 13C9.87329 13 9.54282 12.7997 9.34437 12.5219C9.1219 12.2104 9 11.7116 9 11V4C9 3.28837 9.1219 2.78957 9.34437 2.47812C9.54282 2.20028 9.87329 2 10.5 2C10.7761 2 11 1.77614 11 1.5C11 1.22386 10.7761 1 10.5 1C9.62671 1 8.95718 1.29972 8.53063 1.89688C8.52024 1.91143 8.51003 1.92611 8.5 1.9409C8.48997 1.92611 8.47976 1.91143 8.46937 1.89688C8.04282 1.29972 7.37329 1 6.5 1ZM14 5H11V4H14C14.5523 4 15 4.44772 15 5V10C15 10.5523 14.5523 11 14 11H11V10H14V5ZM6 4V5H1L1 10H6V11H1C0.447715 11 0 10.5523 0 10V5C0 4.44772 0.447715 4 1 4H6Z" fill="currentColor" fill-rule="evenodd" clip-rule="evenodd"></path></symbol>
<symbol viewBox="0 0 15 15" fill="none" id="lab-timer"><path d="M5.49998 0.5C5.49998 0.223858 5.72383 0 5.99998 0H7.49998H8.99998C9.27612 0 9.49998 0.223858 9.49998 0.5C9.49998 0.776142 9.27612 1 8.99998 1H7.99998V2.11922C9.09832 2.20409 10.119 2.56622 10.992 3.13572C11.0116 3.10851 11.0336 3.08252 11.058 3.05806L12.058 2.05806C12.3021 1.81398 12.6978 1.81398 12.9419 2.05806C13.186 2.30214 13.186 2.69786 12.9419 2.94194L11.967 3.91682C13.1595 5.07925 13.9 6.70314 13.9 8.49998C13.9 12.0346 11.0346 14.9 7.49998 14.9C3.96535 14.9 1.09998 12.0346 1.09998 8.49998C1.09998 5.13361 3.69904 2.3743 6.99998 2.11922V1H5.99998C5.72383 1 5.49998 0.776142 5.49998 0.5ZM2.09998 8.49998C2.09998 5.51764 4.51764 3.09998 7.49998 3.09998C10.4823 3.09998 12.9 5.51764 12.9 8.49998C12.9 11.4823 10.4823 13.9 7.49998 13.9C4.51764 13.9 2.09998 11.4823 2.09998 8.49998ZM7.49998 8.49998V4.09998C5.06992 4.09998 3.09998 6.06992 3.09998 8.49998C3.09998 10.93 5.06992 12.9 7.49998 12.9C8.715 12.9 9.815 12.4075 10.6112 11.6112L7.49998 8.49998Z" fill="currentColor" fill-rule="evenodd" clip-rule="evenodd"></path></symbol>
<symbol viewBox="0 0 15 15" fill="none" id="laptop"><path d="M2 4.25C2 4.11193 2.11193 4 2.25 4H12.75C12.8881 4 13 4.11193 13 4.25V11.5H2V4.25ZM2.25 3C1.55964 3 1 3.55964 1 4.25V12H0V12.5C0 12.7761 0.223858 13 0.5 13H14.5C14.7761 13 15 12.7761 15 12.5V12H14V4.25C14 3.55964 13.4404 3 12.75 3H2.25Z" fill="currentColor" fill-rule="evenodd" clip-rule="evenodd"></path></symbol>
<symbol viewBox="0 0 575.57 635.27" fill="none" id="logo">
  <path d="M278.5 145L481.85 366.92V302.82V203.8L385.04 147.66L287.78 91.51L287.34 91.95L355.87 22.55L431.9 66.31L575.57 149.42V302.82V469.05L481.85 523.42L278.5 297.08V466.83L184.79 412.9V198.94L278.5 145Z" fill="#3688a6"></path>
  <path d="M238.27 108.31L217.94 119.8L93.72 190.98V302.82V415.11L190.97 470.8L287.78 526.95L385.04 470.8L404.5 459.76V568.07L287.78 635.27L144.11 552.15L0 469.05V302.82V136.6L171.08 38.46L238.27 0V108.31Z" fill="currentColor"></path>
</symbol>
<symbol viewBox="0 0 15 15" fill="none" id="magnifying-glass"><path d="M10 6.5C10 8.433 8.433 10 6.5 10C4.567 10 3 8.433 3 6.5C3 4.567 4.567 3 6.5 3C8.433 3 10 4.567 10 6.5ZM9.30884 10.0159C8.53901 10.6318 7.56251 11 6.5 11C4.01472 11 2 8.98528 2 6.5C2 4.01472 4.01472 2 6.5 2C8.98528 2 11 4.01472 11 6.5C11 7.56251 10.6318 8.53901 10.0159 9.30884L12.8536 12.1464C13.0488 12.3417 13.0488 12.6583 12.8536 12.8536C12.6583 13.0488 12.3417 13.0488 12.1464 12.8536L9.30884 10.0159Z" fill="currentColor" fill-rule="evenodd" clip-rule="evenodd"></path></symbol>
<symbol viewBox="0 0 15 15" fill="none" id="mixer"><path d="M5 1.5C5 1.22386 4.77614 1 4.5 1C4.22386 1 4 1.22386 4 1.5L4 7C4 7.01671 4.00082 7.03323 4.00242 7.04952C2.86009 7.28022 2 8.28967 2 9.5C2 10.7103 2.86009 11.7198 4.00242 11.9505C4.00082 11.9668 4 11.9833 4 12V13.5C4 13.7761 4.22386 14 4.5 14C4.77614 14 5 13.7761 5 13.5V12C5 11.9833 4.99918 11.9668 4.99758 11.9505C6.1399 11.7198 7 10.7103 7 9.5C7 8.28967 6.1399 7.28022 4.99758 7.04952C4.99918 7.03323 5 7.01671 5 7L5 1.5ZM11 1.5C11 1.22386 10.7761 1 10.5 1C10.2239 1 10 1.22386 10 1.5V3C10 3.01671 10.0008 3.03323 10.0024 3.04952C8.8601 3.28022 8 4.28967 8 5.5C8 6.71033 8.8601 7.71978 10.0024 7.95048C10.0008 7.96677 10 7.98329 10 8V13.5C10 13.7761 10.2239 14 10.5 14C10.7761 14 11 13.7761 11 13.5V8C11 7.98329 10.9992 7.96677 10.9976 7.95048C12.1399 7.71978 13 6.71033 13 5.5C13 4.28967 12.1399 3.28022 10.9976 3.04952C10.9992 3.03323 11 3.01671 11 3V1.5ZM4.5 8C3.67157 8 3 8.67157 3 9.5C3 10.3284 3.67157 11 4.5 11C5.32843 11 6 10.3284 6 9.5C6 8.67157 5.32843 8 4.5 8ZM9 5.5C9 4.67157 9.67157 4 10.5 4C11.3284 4 12 4.67157 12 5.5C12 6.32843 11.3284 7 10.5 7C9.67157 7 9 6.32843 9 5.5Z" fill="currentColor" fill-rule="evenodd" clip-rule="evenodd"></path></symbol>
<symbol viewBox="0 0 15 15" fill="none" id="moon">
  <path     fill-rule="evenodd"
    clip-rule="evenodd"
    d="M2.89998 0.499976C2.89998 0.279062 2.72089 0.0999756 2.49998 0.0999756C2.27906 0.0999756 2.09998 0.279062 2.09998 0.499976V1.09998H1.49998C1.27906 1.09998 1.09998 1.27906 1.09998 1.49998C1.09998 1.72089 1.27906 1.89998 1.49998 1.89998H2.09998V2.49998C2.09998 2.72089 2.27906 2.89998 2.49998 2.89998C2.72089 2.89998 2.89998 2.72089 2.89998 2.49998V1.89998H3.49998C3.72089 1.89998 3.89998 1.72089 3.89998 1.49998C3.89998 1.27906 3.72089 1.09998 3.49998 1.09998H2.89998V0.499976ZM5.89998 3.49998C5.89998 3.27906 5.72089 3.09998 5.49998 3.09998C5.27906 3.09998 5.09998 3.27906 5.09998 3.49998V4.09998H4.49998C4.27906 4.09998 4.09998 4.27906 4.09998 4.49998C4.09998 4.72089 4.27906 4.89998 4.49998 4.89998H5.09998V5.49998C5.09998 5.72089 5.27906 5.89998 5.49998 5.89998C5.72089 5.89998 5.89998 5.72089 5.89998 5.49998V4.89998H6.49998C6.72089 4.89998 6.89998 4.72089 6.89998 4.49998C6.89998 4.27906 6.72089 4.09998 6.49998 4.09998H5.89998V3.49998ZM1.89998 6.49998C1.89998 6.27906 1.72089 6.09998 1.49998 6.09998C1.27906 6.09998 1.09998 6.27906 1.09998 6.49998V7.09998H0.499976C0.279062 7.09998 0.0999756 7.27906 0.0999756 7.49998C0.0999756 7.72089 0.279062 7.89998 0.499976 7.89998H1.09998V8.49998C1.09998 8.72089 1.27906 8.89997 1.49998 8.89997C1.72089 8.89997 1.89998 8.72089 1.89998 8.49998V7.89998H2.49998C2.72089 7.89998 2.89998 7.72089 2.89998 7.49998C2.89998 7.27906 2.72089 7.09998 2.49998 7.09998H1.89998V6.49998ZM8.54406 0.98184L8.24618 0.941586C8.03275 0.917676 7.90692 1.1655 8.02936 1.34194C8.17013 1.54479 8.29981 1.75592 8.41754 1.97445C8.91878 2.90485 9.20322 3.96932 9.20322 5.10022C9.20322 8.37201 6.82247 11.0878 3.69887 11.6097C3.45736 11.65 3.20988 11.6772 2.96008 11.6906C2.74563 11.702 2.62729 11.9535 2.77721 12.1072C2.84551 12.1773 2.91535 12.2458 2.98667 12.3128L3.05883 12.3795L3.31883 12.6045L3.50684 12.7532L3.62796 12.8433L3.81491 12.9742L3.99079 13.089C4.11175 13.1651 4.23536 13.2375 4.36157 13.3059L4.62496 13.4412L4.88553 13.5607L5.18837 13.6828L5.43169 13.7686C5.56564 13.8128 5.70149 13.8529 5.83857 13.8885C5.94262 13.9155 6.04767 13.9401 6.15405 13.9622C6.27993 13.9883 6.40713 14.0109 6.53544 14.0298L6.85241 14.0685L7.11934 14.0892C7.24637 14.0965 7.37436 14.1002 7.50322 14.1002C11.1483 14.1002 14.1032 11.1453 14.1032 7.50023C14.1032 7.25044 14.0893 7.00389 14.0623 6.76131L14.0255 6.48407C13.991 6.26083 13.9453 6.04129 13.8891 5.82642C13.8213 5.56709 13.7382 5.31398 13.6409 5.06881L13.5279 4.80132L13.4507 4.63542L13.3766 4.48666C13.2178 4.17773 13.0353 3.88295 12.8312 3.60423L12.6782 3.40352L12.4793 3.16432L12.3157 2.98361L12.1961 2.85951L12.0355 2.70246L11.8134 2.50184L11.4925 2.24191L11.2483 2.06498L10.9562 1.87446L10.6346 1.68894L10.3073 1.52378L10.1938 1.47176L9.95488 1.3706L9.67791 1.2669L9.42566 1.1846L9.10075 1.09489L8.83599 1.03486L8.54406 0.98184ZM10.4032 5.30023C10.4032 4.27588 10.2002 3.29829 9.83244 2.40604C11.7623 3.28995 13.1032 5.23862 13.1032 7.50023C13.1032 10.593 10.596 13.1002 7.50322 13.1002C6.63646 13.1002 5.81597 12.9036 5.08355 12.5522C6.5419 12.0941 7.81081 11.2082 8.74322 10.0416C8.87963 10.2284 9.10028 10.3497 9.34928 10.3497C9.76349 10.3497 10.0993 10.0139 10.0993 9.59971C10.0993 9.24256 9.84965 8.94373 9.51535 8.86816C9.57741 8.75165 9.63653 8.63334 9.6926 8.51332C9.88358 8.63163 10.1088 8.69993 10.35 8.69993C11.0403 8.69993 11.6 8.14028 11.6 7.44993C11.6 6.75976 11.0406 6.20024 10.3505 6.19993C10.3853 5.90487 10.4032 5.60464 10.4032 5.30023Z"
    fill="currentColor"
  ></path>
</symbol>
<symbol viewBox="0 0 15 15" fill="none" id="pin"><path d="M10 3.5C10 4.70948 9.14112 5.71836 8 5.94999V13.5C8 13.7761 7.77614 14 7.5 14C7.22386 14 7 13.7761 7 13.5V5.94999C5.85888 5.71836 5 4.70948 5 3.5C5 2.11929 6.11929 1 7.5 1C8.88071 1 10 2.11929 10 3.5Z" fill="currentColor" fill-rule="evenodd" clip-rule="evenodd"></path></symbol>
<symbol viewBox="0 0 15 15" fill="none" id="plus-circled"><path d="M7.49991 0.876892C3.84222 0.876892 0.877075 3.84204 0.877075 7.49972C0.877075 11.1574 3.84222 14.1226 7.49991 14.1226C11.1576 14.1226 14.1227 11.1574 14.1227 7.49972C14.1227 3.84204 11.1576 0.876892 7.49991 0.876892ZM1.82707 7.49972C1.82707 4.36671 4.36689 1.82689 7.49991 1.82689C10.6329 1.82689 13.1727 4.36671 13.1727 7.49972C13.1727 10.6327 10.6329 13.1726 7.49991 13.1726C4.36689 13.1726 1.82707 10.6327 1.82707 7.49972ZM7.50003 4C7.77617 4 8.00003 4.22386 8.00003 4.5V7H10.5C10.7762 7 11 7.22386 11 7.5C11 7.77614 10.7762 8 10.5 8H8.00003V10.5C8.00003 10.7761 7.77617 11 7.50003 11C7.22389 11 7.00003 10.7761 7.00003 10.5V8H4.50003C4.22389 8 4.00003 7.77614 4.00003 7.5C4.00003 7.22386 4.22389 7 4.50003 7H7.00003V4.5C7.00003 4.22386 7.22389 4 7.50003 4Z" fill="currentColor" fill-rule="evenodd" clip-rule="evenodd"></path></symbol>
<symbol viewBox="0 0 15 15" fill="none" id="plus"><path d="M8 2.75C8 2.47386 7.77614 2.25 7.5 2.25C7.22386 2.25 7 2.47386 7 2.75V7H2.75C2.47386 7 2.25 7.22386 2.25 7.5C2.25 7.77614 2.47386 8 2.75 8H7V12.25C7 12.5261 7.22386 12.75 7.5 12.75C7.77614 12.75 8 12.5261 8 12.25V8H12.25C12.5261 8 12.75 7.77614 12.75 7.5C12.75 7.22386 12.5261 7 12.25 7H8V2.75Z" fill="currentColor" fill-rule="evenodd" clip-rule="evenodd"></path></symbol>
<symbol viewBox="0 0 15 15" fill="none" id="project"><path d="M4.60913 0.0634287C4.39082 0.0088505 4.16575 0.12393 4.08218 0.332867L3.1538 2.6538L0.832866 3.58218C0.702884 3.63417 0.604504 3.7437 0.566705 3.87849C0.528906 4.01329 0.555994 4.158 0.639992 4.26999L2.01148 6.09864L1.06343 9.89085C1.00944 10.1068 1.12145 10.3298 1.32691 10.4154L4.20115 11.613L5.62557 13.7496C5.73412 13.9124 5.93545 13.9864 6.12362 13.9327L9.62362 12.9327C9.62988 12.9309 9.63611 12.929 9.64229 12.9269L12.6423 11.9269C12.7923 11.8769 12.905 11.7519 12.9393 11.5976L13.9393 7.09761C13.9776 6.92506 13.9114 6.74605 13.77 6.63999L11.95 5.27499V2.99999C11.95 2.82955 11.8537 2.67373 11.7012 2.5975L8.70124 1.0975C8.67187 1.08282 8.64098 1.07139 8.60913 1.06343L4.60913 0.0634287ZM11.4323 6.01173L12.7748 7.01858L10.2119 9.15429C10.1476 9.20786 10.0995 9.2783 10.0731 9.35769L9.25382 11.8155L7.73849 10.8684C7.52774 10.7367 7.25011 10.8007 7.11839 11.0115C6.98667 11.2222 7.05074 11.4999 7.26149 11.6316L8.40341 12.3453L6.19221 12.9771L4.87441 11.0004C4.82513 10.9265 4.75508 10.8688 4.67307 10.8346L2.03046 9.73352L2.85134 6.44999H4.99999C5.24852 6.44999 5.44999 6.24852 5.44999 5.99999C5.44999 5.75146 5.24852 5.54999 4.99999 5.54999H2.72499L1.7123 4.19974L3.51407 3.47903L6.35769 4.4269C6.53655 4.48652 6.73361 4.42832 6.85138 4.28111L8.62413 2.06518L11.05 3.27811V5.19533L8.83287 6.08218C8.70996 6.13134 8.61494 6.23212 8.57308 6.35769L8.07308 7.85769C7.99449 8.09346 8.12191 8.34831 8.35769 8.4269C8.59346 8.50549 8.84831 8.37807 8.9269 8.14229L9.3609 6.84029L11.4323 6.01173ZM7.71052 1.76648L6.34462 3.47386L4.09505 2.724L4.77192 1.03183L7.71052 1.76648ZM10.2115 11.7885L12.116 11.1537L12.7745 8.19034L10.8864 9.76374L10.2115 11.7885Z" fill="currentColor" fill-rule="evenodd" clip-rule="evenodd"></path></symbol>
<symbol viewBox="0 0 15 15" fill="none" id="report"><path d="M3 2.5C3 2.22386 3.22386 2 3.5 2H9.08579C9.21839 2 9.34557 2.05268 9.43934 2.14645L11.8536 4.56066C11.9473 4.65443 12 4.78161 12 4.91421V12.5C12 12.7761 11.7761 13 11.5 13H3.5C3.22386 13 3 12.7761 3 12.5V2.5ZM3.5 1C2.67157 1 2 1.67157 2 2.5V12.5C2 13.3284 2.67157 14 3.5 14H11.5C12.3284 14 13 13.3284 13 12.5V4.91421C13 4.51639 12.842 4.13486 12.5607 3.85355L10.1464 1.43934C9.86514 1.15804 9.48361 1 9.08579 1H3.5ZM4.5 4C4.22386 4 4 4.22386 4 4.5C4 4.77614 4.22386 5 4.5 5H7.5C7.77614 5 8 4.77614 8 4.5C8 4.22386 7.77614 4 7.5 4H4.5ZM4.5 7C4.22386 7 4 7.22386 4 7.5C4 7.77614 4.22386 8 4.5 8H10.5C10.7761 8 11 7.77614 11 7.5C11 7.22386 10.7761 7 10.5 7H4.5ZM4.5 10C4.22386 10 4 10.2239 4 10.5C4 10.7761 4.22386 11 4.5 11H10.5C10.7761 11 11 10.7761 11 10.5C11 10.2239 10.7761 10 10.5 10H4.5Z" fill="currentColor" fill-rule="evenodd" clip-rule="evenodd"></path></symbol>
<symbol viewBox="0 0 15 15" fill="none" id="search"><path d="M10 6.5C10 8.433 8.433 10 6.5 10C4.567 10 3 8.433 3 6.5C3 4.567 4.567 3 6.5 3C8.433 3 10 4.567 10 6.5ZM9.30884 10.0159C8.53901 10.6318 7.56251 11 6.5 11C4.01472 11 2 8.98528 2 6.5C2 4.01472 4.01472 2 6.5 2C8.98528 2 11 4.01472 11 6.5C11 7.56251 10.6318 8.53901 10.0159 9.30884L12.8536 12.1464C13.0488 12.3417 13.0488 12.6583 12.8536 12.8536C12.6583 13.0488 12.3417 13.0488 12.1464 12.8536L9.30884 10.0159Z" fill="currentColor" fill-rule="evenodd" clip-rule="evenodd"></path></symbol>
<symbol viewBox="0 0 15 15" fill="none" id="select-drop"><path d="M3.89949 5.50002C3.89949 5.27911 3.7204 5.10003 3.49949 5.10003C3.27857 5.10003 3.09949 5.27911 3.09949 5.50002L3.09949 12.5343L1.78233 11.2172C1.62612 11.061 1.37285 11.061 1.21664 11.2172C1.06043 11.3734 1.06043 11.6267 1.21664 11.7829L3.21664 13.7829C3.29166 13.8579 3.3934 13.9 3.49949 13.9C3.60557 13.9 3.70732 13.8579 3.78233 13.7829L5.78233 11.7829C5.93854 11.6267 5.93854 11.3734 5.78233 11.2172C5.62612 11.061 5.37285 11.061 5.21664 11.2172L3.89949 12.5343L3.89949 5.50002ZM8.49998 13C8.22383 13 7.99998 12.7762 7.99998 12.5C7.99998 12.2239 8.22383 12 8.49998 12H14.5C14.7761 12 15 12.2239 15 12.5C15 12.7762 14.7761 13 14.5 13H8.49998ZM8.49998 10C8.22383 10 7.99998 9.77617 7.99998 9.50002C7.99998 9.22388 8.22383 9.00002 8.49998 9.00002H14.5C14.7761 9.00002 15 9.22388 15 9.50002C15 9.77617 14.7761 10 14.5 10H8.49998ZM7.99998 6.50002C7.99998 6.77617 8.22383 7.00002 8.49998 7.00002H14.5C14.7761 7.00002 15 6.77617 15 6.50002C15 6.22388 14.7761 6.00002 14.5 6.00002H8.49998C8.22383 6.00002 7.99998 6.22388 7.99998 6.50002Z" fill="currentColor" fill-rule="evenodd" clip-rule="evenodd"></path></symbol>
<symbol viewBox="0 0 15 15" fill="none" id="setting"><path d="M7.07095 0.650238C6.67391 0.650238 6.32977 0.925096 6.24198 1.31231L6.0039 2.36247C5.6249 2.47269 5.26335 2.62363 4.92436 2.81013L4.01335 2.23585C3.67748 2.02413 3.23978 2.07312 2.95903 2.35386L2.35294 2.95996C2.0722 3.2407 2.0232 3.6784 2.23493 4.01427L2.80942 4.92561C2.62307 5.2645 2.47227 5.62594 2.36216 6.00481L1.31209 6.24287C0.924883 6.33065 0.650024 6.6748 0.650024 7.07183V7.92897C0.650024 8.32601 0.924883 8.67015 1.31209 8.75794L2.36228 8.99603C2.47246 9.375 2.62335 9.73652 2.80979 10.0755L2.2354 10.9867C2.02367 11.3225 2.07267 11.7602 2.35341 12.041L2.95951 12.6471C3.24025 12.9278 3.67795 12.9768 4.01382 12.7651L4.92506 12.1907C5.26384 12.377 5.62516 12.5278 6.0039 12.6379L6.24198 13.6881C6.32977 14.0753 6.67391 14.3502 7.07095 14.3502H7.92809C8.32512 14.3502 8.66927 14.0753 8.75705 13.6881L8.99505 12.6383C9.37411 12.5282 9.73573 12.3773 10.0748 12.1909L10.986 12.7653C11.3218 12.977 11.7595 12.928 12.0403 12.6473L12.6464 12.0412C12.9271 11.7604 12.9761 11.3227 12.7644 10.9869L12.1902 10.076C12.3768 9.73688 12.5278 9.37515 12.638 8.99596L13.6879 8.75794C14.0751 8.67015 14.35 8.32601 14.35 7.92897V7.07183C14.35 6.6748 14.0751 6.33065 13.6879 6.24287L12.6381 6.00488C12.528 5.62578 12.3771 5.26414 12.1906 4.92507L12.7648 4.01407C12.9766 3.6782 12.9276 3.2405 12.6468 2.95975L12.0407 2.35366C11.76 2.07292 11.3223 2.02392 10.9864 2.23565L10.0755 2.80989C9.73622 2.62328 9.37437 2.47229 8.99505 2.36209L8.75705 1.31231C8.66927 0.925096 8.32512 0.650238 7.92809 0.650238H7.07095ZM4.92053 3.81251C5.44724 3.44339 6.05665 3.18424 6.71543 3.06839L7.07095 1.50024H7.92809L8.28355 3.06816C8.94267 3.18387 9.5524 3.44302 10.0794 3.81224L11.4397 2.9547L12.0458 3.56079L11.1882 4.92117C11.5573 5.44798 11.8164 6.0575 11.9321 6.71638L13.5 7.07183V7.92897L11.932 8.28444C11.8162 8.94342 11.557 9.55301 11.1878 10.0798L12.0453 11.4402L11.4392 12.0462L10.0787 11.1886C9.55192 11.5576 8.94241 11.8166 8.28355 11.9323L7.92809 13.5002H7.07095L6.71543 11.932C6.0569 11.8162 5.44772 11.5572 4.92116 11.1883L3.56055 12.046L2.95445 11.4399L3.81213 10.0794C3.4431 9.55266 3.18403 8.94326 3.06825 8.2845L1.50002 7.92897V7.07183L3.06818 6.71632C3.18388 6.05765 3.44283 5.44833 3.81171 4.92165L2.95398 3.561L3.56008 2.95491L4.92053 3.81251ZM9.02496 7.50008C9.02496 8.34226 8.34223 9.02499 7.50005 9.02499C6.65786 9.02499 5.97513 8.34226 5.97513 7.50008C5.97513 6.65789 6.65786 5.97516 7.50005 5.97516C8.34223 5.97516 9.02496 6.65789 9.02496 7.50008ZM9.92496 7.50008C9.92496 8.83932 8.83929 9.92499 7.50005 9.92499C6.1608 9.92499 5.07513 8.83932 5.07513 7.50008C5.07513 6.16084 6.1608 5.07516 7.50005 5.07516C8.83929 5.07516 9.92496 6.16084 9.92496 7.50008Z" fill="currentColor" fill-rule="evenodd" clip-rule="evenodd"></path></symbol>
<symbol viewBox="0 0 24 24" fill="none" stroke="currentColor" strokeLinecap="round" strokeLinejoin="round" strokeWidth="2" className="h-4 w-4 text-muted-foreground" id="stat">
            <path d="M22 12h-4l-3 9L9 3l-3 9H2" ></path>
          </symbol>
<symbol viewBox="0 0 24 24" fill="none" stroke="currentColor" strokeLinecap="round" strokeLinejoin="round" strokeWidth="2" className="h-4 w-4 text-muted-foreground" id="subscriptions">
            <path d="M16 21v-2a4 4 0 0 0-4-4H6a4 4 0 0 0-4 4v2" ></path>
            <circle cx="9" cy="7" r="4" ></circle>
            <path d="M22 21v-2a4 4 0 0 0-3-3.87M16 3.13a4 4 0 0 1 0 7.75" ></path>
          </symbol>
<symbol viewBox="0 0 15 15" fill="none" id="sun">
  <path     fill-rule="evenodd"
    clip-rule="evenodd"
    d="M7.5 0C7.77614 0 8 0.223858 8 0.5V2.5C8 2.77614 7.77614 3 7.5 3C7.22386 3 7 2.77614 7 2.5V0.5C7 0.223858 7.22386 0 7.5 0ZM2.1967 2.1967C2.39196 2.00144 2.70854 2.00144 2.90381 2.1967L4.31802 3.61091C4.51328 3.80617 4.51328 4.12276 4.31802 4.31802C4.12276 4.51328 3.80617 4.51328 3.61091 4.31802L2.1967 2.90381C2.00144 2.70854 2.00144 2.39196 2.1967 2.1967ZM0.5 7C0.223858 7 0 7.22386 0 7.5C0 7.77614 0.223858 8 0.5 8H2.5C2.77614 8 3 7.77614 3 7.5C3 7.22386 2.77614 7 2.5 7H0.5ZM2.1967 12.8033C2.00144 12.608 2.00144 12.2915 2.1967 12.0962L3.61091 10.682C3.80617 10.4867 4.12276 10.4867 4.31802 10.682C4.51328 10.8772 4.51328 11.1938 4.31802 11.3891L2.90381 12.8033C2.70854 12.9986 2.39196 12.9986 2.1967 12.8033ZM12.5 7C12.2239 7 12 7.22386 12 7.5C12 7.77614 12.2239 8 12.5 8H14.5C14.7761 8 15 7.77614 15 7.5C15 7.22386 14.7761 7 14.5 7H12.5ZM10.682 4.31802C10.4867 4.12276 10.4867 3.80617 10.682 3.61091L12.0962 2.1967C12.2915 2.00144 12.608 2.00144 12.8033 2.1967C12.9986 2.39196 12.9986 2.70854 12.8033 2.90381L11.3891 4.31802C11.1938 4.51328 10.8772 4.51328 10.682 4.31802ZM8 12.5C8 12.2239 7.77614 12 7.5 12C7.22386 12 7 12.2239 7 12.5V14.5C7 14.7761 7.22386 15 7.5 15C7.77614 15 8 14.7761 8 14.5V12.5ZM10.682 10.682C10.8772 10.4867 11.1938 10.4867 11.3891 10.682L12.8033 12.0962C12.9986 12.2915 12.9986 12.608 12.8033 12.8033C12.608 12.9986 12.2915 12.9986 12.0962 12.8033L10.682 11.3891C10.4867 11.1938 10.4867 10.8772 10.682 10.682ZM5.5 7.5C5.5 6.39543 6.39543 5.5 7.5 5.5C8.60457 5.5 9.5 6.39543 9.5 7.5C9.5 8.60457 8.60457 9.5 7.5 9.5C6.39543 9.5 5.5 8.60457 5.5 7.5ZM7.5 4.5C5.84315 4.5 4.5 5.84315 4.5 7.5C4.5 9.15685 5.84315 10.5 7.5 10.5C9.15685 10.5 10.5 9.15685 10.5 7.5C10.5 5.84315 9.15685 4.5 7.5 4.5Z"
    fill="currentColor"
  ></path>
</symbol>
<symbol viewBox="0 0 15 15" fill="none" id="table"><path d="M8 2H12.5C12.7761 2 13 2.22386 13 2.5V5H8V2ZM7 5V2H2.5C2.22386 2 2 2.22386 2 2.5V5H7ZM2 6V9H7V6H2ZM8 6H13V9H8V6ZM8 10H13V12.5C13 12.7761 12.7761 13 12.5 13H8V10ZM2 12.5V10H7V13H2.5C2.22386 13 2 12.7761 2 12.5ZM1 2.5C1 1.67157 1.67157 1 2.5 1H12.5C13.3284 1 14 1.67157 14 2.5V12.5C14 13.3284 13.3284 14 12.5 14H2.5C1.67157 14 1 13.3284 1 12.5V2.5Z" fill="currentColor" fill-rule="evenodd" clip-rule="evenodd"></path></symbol>
<symbol viewBox="0 0 15 15" fill="none" id="trash">
<path d="M5.5 1C5.22386 1 5 1.22386 5 1.5C5 1.77614 5.22386 2 5.5 2H9.5C9.77614 2 10 1.77614 10 1.5C10 1.22386 9.77614 1 9.5 1H5.5ZM3 3.5C3 3.22386 3.22386 3 3.5 3H5H10H11.5C11.7761 3 12 3.22386 12 3.5C12 3.77614 11.7761 4 11.5 4H11V12C11 12.5523 10.5523 13 10 13H5C4.44772 13 4 12.5523 4 12V4L3.5 4C3.22386 4 3 3.77614 3 3.5ZM5 4H10V12H5V4Z"
fill="currentColor"
fill-rule="evenodd"
clip-rule="evenodd"
></path>
</symbol>
<symbol viewBox="0 0 15 15" fill="none" id="update"><path d="M1.90321 7.29677C1.90321 10.341 4.11041 12.4147 6.58893 12.8439C6.87255 12.893 7.06266 13.1627 7.01355 13.4464C6.96444 13.73 6.69471 13.9201 6.41109 13.871C3.49942 13.3668 0.86084 10.9127 0.86084 7.29677C0.860839 5.76009 1.55996 4.55245 2.37639 3.63377C2.96124 2.97568 3.63034 2.44135 4.16846 2.03202L2.53205 2.03202C2.25591 2.03202 2.03205 1.80816 2.03205 1.53202C2.03205 1.25588 2.25591 1.03202 2.53205 1.03202L5.53205 1.03202C5.80819 1.03202 6.03205 1.25588 6.03205 1.53202L6.03205 4.53202C6.03205 4.80816 5.80819 5.03202 5.53205 5.03202C5.25591 5.03202 5.03205 4.80816 5.03205 4.53202L5.03205 2.68645L5.03054 2.68759L5.03045 2.68766L5.03044 2.68767L5.03043 2.68767C4.45896 3.11868 3.76059 3.64538 3.15554 4.3262C2.44102 5.13021 1.90321 6.10154 1.90321 7.29677ZM13.0109 7.70321C13.0109 4.69115 10.8505 2.6296 8.40384 2.17029C8.12093 2.11718 7.93465 1.84479 7.98776 1.56188C8.04087 1.27898 8.31326 1.0927 8.59616 1.14581C11.4704 1.68541 14.0532 4.12605 14.0532 7.70321C14.0532 9.23988 13.3541 10.4475 12.5377 11.3662C11.9528 12.0243 11.2837 12.5586 10.7456 12.968L12.3821 12.968C12.6582 12.968 12.8821 13.1918 12.8821 13.468C12.8821 13.7441 12.6582 13.968 12.3821 13.968L9.38205 13.968C9.10591 13.968 8.88205 13.7441 8.88205 13.468L8.88205 10.468C8.88205 10.1918 9.10591 9.96796 9.38205 9.96796C9.65819 9.96796 9.88205 10.1918 9.88205 10.468L9.88205 12.3135L9.88362 12.3123C10.4551 11.8813 11.1535 11.3546 11.7585 10.6738C12.4731 9.86976 13.0109 8.89844 13.0109 7.70321Z" fill="currentColor" fill-rule="evenodd" clip-rule="evenodd"></path></symbol>
</defs>
</svg>
