<svg width="15" height="15" viewBox="0 0 575.57 635.27" fill="none" xmlns="http://www.w3.org/2000/svg">
  <path d="M278.5 145L481.85 366.92V302.82V203.8L385.04 147.66L287.78 91.51L287.34 91.95L355.87 22.55L431.9 66.31L575.57 149.42V302.82V469.05L481.85 523.42L278.5 297.08V466.83L184.79 412.9V198.94L278.5 145Z" fill="#3688a6"/>
  <path d="M238.27 108.31L217.94 119.8L93.72 190.98V302.82V415.11L190.97 470.8L287.78 526.95L385.04 470.8L404.5 459.76V568.07L287.78 635.27L144.11 552.15L0 469.05V302.82V136.6L171.08 38.46L238.27 0V108.31Z" fill="currentColor"/>
</svg>
